Coordinates
version=1
nRows=14
nColumns=40
inDegrees=yes

Units are S.I. units (second, meters, Newtons, ...)
If the header above contains a line with 'inDegrees', this indicates whether rotational values are in degrees (yes) or radians (no).

endheader
time	pelvis_tilt	pelvis_list	pelvis_rotation	pelvis_tx	pelvis_ty	pelvis_tz	hip_flexion_r	hip_adduction_r	hip_rotation_r	knee_angle_r	knee_angle_r_beta	ankle_angle_r	subtalar_angle_r	mtp_angle_r	hip_flexion_l	hip_adduction_l	hip_rotation_l	knee_angle_l	knee_angle_l_beta	ankle_angle_l	subtalar_angle_l	mtp_angle_l	lumbar_extension	lumbar_bending	lumbar_rotation	arm_flex_r	arm_add_r	arm_rot_r	elbow_flex_r	pro_sup_r	wrist_flex_r	wrist_dev_r	arm_flex_l	arm_add_l	arm_rot_l	elbow_flex_l	pro_sup_l	wrist_flex_l	wrist_dev_l
      3.42000000	    -17.65524081	      2.39640986	     -3.60569830	     -0.30805812	      0.88483216	     -0.91992521	     40.58676043	    -13.55671035	     -9.39269819	     40.44257458	      0.70585608	     -0.81604354	      0.00000000	      0.00000000	     37.69666423	     -8.04338311	     -7.82436895	     39.62636078	      0.69161047	      4.82146369	      0.00000000	      0.00000000	    -10.99578843	     -1.38338400	     -8.75627415	    -15.30076078	    -57.67611860	     45.28596170	    105.54900211	     87.02219793	      0.00000000	      0.00000000	    -35.79434202	    -48.68446607	     31.40606568	     98.91705236	     85.73064675	      0.00000000	      0.00000000
      3.42500000	    -17.30501011	      2.22031140	     -3.82028164	     -0.30387701	      0.89679579	     -0.91912706	     38.18853975	    -12.93247647	    -10.12955057	     36.90560995	      0.64412441	     -3.81939221	      0.00000000	      0.00000000	     35.43379686	     -8.06545088	     -8.45822571	     36.25428343	      0.63275661	      1.75537640	      0.00000000	      0.00000000	    -10.45244307	     -1.29871659	     -8.72952617	    -14.95934637	    -57.83862753	     45.69396701	    105.19941125	     87.02906466	      0.00000000	      0.00000000	    -35.63053054	    -48.37479617	     31.78268809	     98.15006239	     85.73538869	      0.00000000	      0.00000000
      3.43000000	    -17.26257288	      1.98327542	     -3.86855478	     -0.30024992	      0.90881338	     -0.91859275	     36.08480397	    -12.21753389	    -10.72225963	     33.18325185	      0.57915700	     -7.35759220	      0.00000000	      0.00000000	     33.57046143	     -7.96821933	     -8.58770113	     32.76862722	      0.57192044	     -1.88085658	      0.00000000	      0.00000000	     -9.68556327	     -1.06954679	     -8.85416595	    -14.82281358	    -57.87125996	     45.80951981	    104.75443887	     87.01649051	      0.00000000	      0.00000000	    -35.47402378	    -47.82428179	     31.95901541	     97.25278600	     85.69610465	      0.00000000	      0.00000000
      3.43500000	    -16.86583282	      1.66373078	     -3.69614872	     -0.29658031	      0.92138005	     -0.91816308	     33.47720737	    -11.53670172	    -11.64859781	     29.25294037	      0.51056013	    -11.27401599	      0.00000000	      0.00000000	     31.35210769	     -7.83045224	     -8.67874315	     29.14376804	      0.50865471	     -5.96380291	      0.00000000	      0.00000000	     -9.34045416	     -0.77037945	     -9.15472955	    -14.57191014	    -57.74129714	     45.99064509	    104.17251856	     87.01636823	      0.00000000	      0.00000000	    -35.16247487	    -47.39541571	     32.13938075	     96.35370810	     85.67502753	      0.00000000	      0.00000000
      3.44000000	    -16.71352858	      1.42643777	     -3.83322006	     -0.29225704	      0.93384065	     -0.91758110	     31.18474332	    -10.68064198	    -12.07997526	     25.18202002	      0.43950916	    -15.70634113	      0.00000000	      0.00000000	     29.20447891	     -7.71516045	     -8.98430382	     25.25242505	      0.44073796	    -10.29137148	      0.00000000	      0.00000000	     -8.64628051	     -0.56018879	     -9.17935945	    -14.34737829	    -57.45393214	     46.19439149	    103.27734306	     87.01380136	      0.00000000	      0.00000000	    -34.82115918	    -46.61226542	     32.32141190	     95.10427969	     85.59683728	      0.00000000	      0.00000000
      3.44500000	    -16.28978164	      1.14951552	     -3.79782477	     -0.28802611	      0.94657705	     -0.91696308	     28.55304968	     -9.84686506	    -12.68202284	     20.96115838	      0.36584123	    -20.37117080	      0.00000000	      0.00000000	     26.82714339	     -7.55224377	     -9.13701347	     21.27752988	      0.37136295	    -15.29214398	      0.00000000	      0.00000000	     -8.28183101	     -0.31454087	     -9.32615151	    -14.10534434	    -57.06678377	     46.52565216	    102.39553450	     87.00864307	      0.00000000	      0.00000000	    -34.43423917	    -46.00437888	     32.61535445	     94.00173470	     85.60646439	      0.00000000	      0.00000000
      3.45000000	    -16.21059775	      0.89676303	     -3.66898984	     -0.28424057	      0.95904091	     -0.91664259	     26.46204040	     -9.08873387	    -13.40413647	     16.90621624	      0.29506914	    -25.38855300	      0.00000000	      0.00000000	     24.96223202	     -7.33052231	     -9.15656100	     17.27419231	      0.30149153	    -20.95529872	      0.00000000	      0.00000000	     -7.59005992	     -0.05699392	     -9.55332689	    -13.91289352	    -56.49542182	     46.72253859	    101.32632957	     87.01215149	      0.00000000	      0.00000000	    -34.00941999	    -45.30653679	     32.75397279	     92.90685419	     85.57647858	      0.00000000	      0.00000000
      3.45500000	    -15.76304106	      0.68397737	     -3.68952959	     -0.27981248	      0.97182604	     -0.91596760	     23.94787234	     -8.27125258	    -13.93055559	     12.70825992	      0.22180098	    -30.15765635	      0.00000000	      0.00000000	     22.55809800	     -7.11870919	     -9.38657885	     13.01139349	      0.22709166	    -26.66648957	      0.00000000	      0.00000000	     -7.24816716	      0.09950665	     -9.61548049	    -13.78188651	    -55.81365614	     46.91396627	    100.22691585	     87.01174551	      0.00000000	      0.00000000	    -33.64804931	    -44.65446299	     32.90321921	     91.94937339	     85.54928177	      0.00000000	      0.00000000
      3.46000000	    -15.66118092	      0.33210299	     -3.56828486	     -0.27604977	      0.98417752	     -0.91558405	     22.13261024	     -7.46132314	    -15.40643428	      9.19168336	      0.16042514	    -34.45058933	      0.00000000	      0.00000000	     20.91018674	     -7.09597937	     -9.56963134	      9.28744652	      0.16209652	    -32.25161136	      0.00000000	      0.00000000	     -6.65096891	      0.45380801	     -9.80518195	    -13.80425546	    -54.95223809	     46.80015546	     98.88171305	     86.98258655	      0.00000000	      0.00000000	    -33.37806891	    -43.83628148	     32.75692422	     90.94313099	     85.53398728	      0.00000000	      0.00000000
      3.46500000	    -15.08444711	      0.12942619	     -3.56773011	     -0.27125868	      0.99699031	     -0.91480587	     19.78907286	     -6.69697782	    -16.57466157	      5.86697866	      0.10239809	    -37.14814830	      0.00000000	      0.00000000	     18.40623785	     -6.90725027	    -10.04822163	      5.25951188	      0.09179580	    -36.02254664	      0.00000000	      0.00000000	     -6.43044764	      0.57393246	     -9.78440348	    -14.02241647	    -54.05102802	     46.81297150	     97.65230066	     87.00029115	      0.00000000	      0.00000000	    -33.01739620	    -43.34460742	     32.92928505	     90.31691063	     85.53212256	      0.00000000	      0.00000000
      3.47000000	    -14.94123293	     -0.04044045	     -3.51590547	     -0.26741488	      1.00933339	     -0.91438747	     18.33155625	     -6.08348741	    -18.79898050	      3.54718127	      0.06190999	    -38.05967830	      0.00000000	      0.00000000	     16.92721388	     -6.73592755	    -11.01014699	      2.36312379	      0.04124429	    -37.11860294	      0.00000000	      0.00000000	     -5.84944152	      0.70434953	     -9.85056625	    -14.21275593	    -52.95431997	     46.51242999	     96.26168497	     86.97765915	      0.00000000	      0.00000000	    -32.68659695	    -42.71023388	     32.95836173	     89.61705864	     85.53663003	      0.00000000	      0.00000000
      3.47500000	    -14.92188862	     -0.17718092	     -3.69501975	     -0.26364588	      1.02144232	     -0.91365492	     17.32358849	     -5.48639577	    -21.36929900	      1.92680594	      0.03362911	    -37.97134546	      0.00000000	      0.00000000	     16.09464338	     -6.72836956	    -13.01174781	      0.98248397	      0.01714758	    -36.81549957	      0.00000000	      0.00000000	     -5.12102117	      0.79353306	     -9.65691546	    -14.41118080	    -51.74769191	     46.17993394	     94.70201634	     86.95214428	      0.00000000	      0.00000000	    -32.44619345	    -42.06794589	     32.87153105	     88.98355483	     85.53840156	      0.00000000	      0.00000000
      3.48000000	    -14.80138710	     -0.39418738	     -3.75259812	     -0.26040498	      1.03353231	     -0.91311688	     16.52620499	     -4.94319711	    -24.33316307	      1.28751688	      0.02247141	    -37.45693509	      0.00000000	      0.00000000	     15.57396457	     -6.79418063	    -15.84302032	      0.61343273	      0.01070642	    -35.58474272	      0.00000000	      0.00000000	     -4.58874466	      0.99090030	     -9.53872747	    -14.64696203	    -50.53324302	     45.68700429	     93.34818391	     86.93435741	      0.00000000	      0.00000000	    -32.10982137	    -41.60702173	     32.91693662	     88.49273629	     85.56099224	      0.00000000	      0.00000000
      3.48500000	    -14.55459843	     -0.52577972	     -3.85662966	     -0.25703170	      1.04539829	     -0.91253634	     15.83969838	     -4.55116191	    -27.29654798	      1.29506213	      0.02260310	    -36.42750329	      0.00000000	      0.00000000	     14.93363636	     -6.74650575	    -18.67313541	      0.55371830	      0.00966421	    -34.06422549	      0.00000000	      0.00000000	     -4.20470249	      1.10998849	     -9.28303713	    -15.20823847	    -49.30118913	     44.83519250	     92.20082140	     86.92471013	      0.00000000	      0.00000000	    -31.70100598	    -41.29763579	     33.05162506	     88.08201969	     85.61376376	      0.00000000	      0.00000000
